<svg id="Calque_1" data-name="Calque 1" xmlns="http://www.w3.org/2000/svg" viewBox="0 0 677.56 677.56"><defs><style>.cls-1{fill:#7e1710;}</style></defs><path class="cls-1" d="M646.91,297.64l-56.26-9.4a7.17,7.17,0,0,1-5.79-5.48,252.07,252.07,0,0,0-31-75,7.16,7.16,0,0,1,.23-8l34.54-48.36a7.2,7.2,0,0,0-.77-9.28l-51-50.94a7.2,7.2,0,0,0-9.28-.77L479.15,125a7.16,7.16,0,0,1-8,.23,251.17,251.17,0,0,0-73.61-30.56,7.19,7.19,0,0,1-5.45-5.79L382,28.31a7.2,7.2,0,0,0-7.11-6H302.83a7.2,7.2,0,0,0-7.11,6L285.66,88.69a7.15,7.15,0,0,1-5.47,5.79,251.63,251.63,0,0,0-71.83,29.25,7.18,7.18,0,0,1-7.89-.28L149.81,87.28a7.19,7.19,0,0,0-9.28.77l-51,51a7.19,7.19,0,0,0-.77,9.28l35.45,49.58a7.19,7.19,0,0,1,.19,8,251,251,0,0,0-32.24,76.92,7.19,7.19,0,0,1-5.8,5.5l-55.73,9.3a7.2,7.2,0,0,0-6,7.11v72.09a7.2,7.2,0,0,0,6,7.11l55.78,9.3a7.19,7.19,0,0,1,5.8,5.49,251,251,0,0,0,30.68,74.42,7.19,7.19,0,0,1-.23,7.95L87.13,530.88a7.21,7.21,0,0,0,.77,9.28l50.94,51a7.22,7.22,0,0,0,9.29.77l49.71-35.53a7.17,7.17,0,0,1,8-.23,251.06,251.06,0,0,0,75,31,7.17,7.17,0,0,1,5.49,5.79l9.4,56.35a7.2,7.2,0,0,0,7.11,6h72.09a7.2,7.2,0,0,0,7.1-6l9.4-56.49a7.19,7.19,0,0,1,5.49-5.8,251.45,251.45,0,0,0,77-32.5,7.19,7.19,0,0,1,8,.18l45.87,32.74a7.2,7.2,0,0,0,9.28-.77l51-50.94a7.2,7.2,0,0,0,.77-9.29l-33.49-46.89a7.18,7.18,0,0,1-.27-7.91,251.69,251.69,0,0,0,29.7-72.76,7.18,7.18,0,0,1,5.79-5.48L646.91,384a7.21,7.21,0,0,0,6-7.11v-72.1A7.2,7.2,0,0,0,646.91,297.64ZM338.78,473.93A135.15,135.15,0,1,1,473.93,338.78,135.15,135.15,0,0,1,338.78,473.93Z"/></svg>