<svg xmlns="http://www.w3.org/2000/svg" xmlns:xlink="http://www.w3.org/1999/xlink" width="113.17" height="210.511" viewBox="0 0 113.17 210.511">
  <defs>
    <clipPath id="clip-path">
      <rect id="Rectangle_111" data-name="Rectangle 111" width="113.17" height="164.2" fill="none"/>
    </clipPath>
  </defs>
  <g id="Groupe_270" data-name="Groupe 270" transform="translate(-130.916 -318.4)">
    <g id="Groupe_269" data-name="Groupe 269" transform="translate(130.916 318.4)">
      <g id="Groupe_60" data-name="Groupe 60" clip-path="url(#clip-path)">
        <path id="Tracé_41" data-name="Tracé 41" d="M81.5,137.179c-16.661,9.164-24.192,10.776-34.019,17.6-2.553,1.772-4.207,3.181-5.471,4.233-3.014,2.516-7.14.1-7.118-3.825.031-5.874-.572-10.411-2.134-13.56-3.463-6.98-4.151-10.077-25.5-19.055-21.765-7.921,11.278-37.05,22.146-10.193,11.905,29.411,16.757,20.083,15.01.1C39.046,77.646-18.408,72.574,9.2,53.156c9.322-8.055,23.038-1,30.244,21.36,3.464,11.62,15.694,20.727,16.479,6.769.542-9.633.649-16.779-3.463-25.871C46.825,42.95,39.024,35.4,39.042,22.941c.393-11.708,11.365-27.6,20.027-21.649,17.454,12,12.4,34.671,10.5,48.819-2.8,20.851-7.935,34.207,3.165,36.9,4.953,1.2,10.067-6.55,8.986-20.622-1.869-24.282,33.211-40.247,19.457,2.232-13.451,31.44-25.762,24.627-37.452,42.486-5.6,8.559-8.06,16.115-5.206,20.719,2.722,4.589,11.746,5.837,17.519-8.574,10.248-31.59,35.428-5.073,5.469,13.927" transform="translate(0 0)" fill="#7f0f00"/>
        <path id="Tracé_42" data-name="Tracé 42" d="M45.814,164.046a5.538,5.538,0,0,1-2.374-.541,6.357,6.357,0,0,1-3.533-5.819c.032-5.926-.615-10.141-1.978-12.887l-.473-.961c-2.95-6.019-4.431-9.039-24.265-17.38-5.632-2.048-8.619-5.922-8.128-10.6.654-6.252,7.433-12.41,14.8-13.448,7.594-1.069,13.944,3.276,17.443,11.918,7.29,18.009,10.526,17.792,10.567,17.792.935-.224,2.625-4.805,1.571-16.95-2.469-15.828-16.328-25.4-27.468-33.1C13.481,76.2,6.772,71.568,6.747,65.6c-.016-3.708,2.54-7.242,8.044-11.124a13.639,13.639,0,0,1,12.867-3c8.128,2.278,15.316,11.421,19.72,25.082,2.187,7.336,7.839,13.149,10.952,12.785,2.008-.238,2.5-3.636,2.61-5.641.538-9.565.6-16.485-3.333-25.171A115.229,115.229,0,0,0,51.928,47.9c-4.056-6.98-7.888-13.574-7.876-22.455.306-9.074,6.411-19.937,13.07-23.3a8.7,8.7,0,0,1,9.3.417C83.184,14.086,80.112,35.166,78.08,49.115c-.187,1.284-.367,2.519-.525,3.7-.562,4.183-1.227,8.126-1.814,11.606-2.554,15.126-3.379,21.888,3.851,23.641a3.23,3.23,0,0,0,2.92-.876c2.434-2.068,5-8.071,4.221-18.178-.868-11.279,5.836-21.01,12.584-24.442,3.722-1.892,7.26-1.781,9.7.307,3.12,2.666,5.668,9.464.082,26.713l-.047.128c-8.235,19.243-16.048,24.459-23.605,29.5-4.86,3.244-9.451,6.308-13.97,13.213C65.839,123.047,64,129.833,66.3,133.54a5,5,0,0,0,4.782,2.39c3.779-.292,7.444-4.187,10.059-10.687,3.226-9.911,8.582-15.777,14.272-15.635,3.64.075,6.715,2.714,7.834,6.721,1.692,6.061-1.073,16.144-14.431,24.615l-.08.046c-7.481,4.116-13.048,6.679-17.96,8.94-5.917,2.725-10.592,4.877-15.927,8.584-2.33,1.618-3.872,2.907-5.11,3.941l-.255.213a5.71,5.71,0,0,1-3.666,1.378M22.086,105.237a12.935,12.935,0,0,0-1.806.13c-6.007.847-11.729,5.893-12.243,10.8-.437,4.166,3.156,6.381,6.244,7.506,20.937,8.8,22.583,12.16,25.861,18.849l.467.947c1.6,3.218,2.323,7.741,2.289,14.233a3.351,3.351,0,0,0,1.816,3.1,2.545,2.545,0,0,0,2.848-.428l.254-.21c1.216-1.017,2.883-2.407,5.32-4.1,5.552-3.857,10.331-6.057,16.384-8.844,4.857-2.235,10.361-4.769,17.728-8.821,11.939-7.586,14.527-16.191,13.112-21.257-.767-2.75-2.689-4.488-5.015-4.535h-.1c-3.338,0-8.026,3.569-11.285,13.617l-.035.1c-4.183,10.44-9.7,12.376-12.623,12.6a7.979,7.979,0,0,1-7.571-3.822c-3.016-4.863-1.259-12.376,5.239-22.3,4.854-7.415,9.918-10.8,14.814-14.063,7.185-4.8,14.615-9.756,22.487-28.129,5.671-17.551,2.046-22.387.8-23.451-2.026-1.73-4.884-.691-6.4.083C94.787,50.221,88.945,58.79,89.714,68.775c.733,9.526-1.236,17.26-5.264,20.688a6.225,6.225,0,0,1-5.564,1.5c-10.24-2.484-8.5-12.787-6.1-27.046.583-3.456,1.245-7.373,1.8-11.506.16-1.187.342-2.434.53-3.73C77.161,34.677,79.955,15.5,64.726,5.026a5.789,5.789,0,0,0-6.258-.212C52.756,7.7,47.309,17.554,47.043,25.494c-.01,8.025,3.457,13.989,7.472,20.9A117.867,117.867,0,0,1,60.333,57.3c4.211,9.307,4.157,16.564,3.595,26.571-.385,6.856-3.454,8.232-5.249,8.443-4.912.577-11.665-6.509-14.158-14.869C40.5,64.972,33.89,56.33,26.85,54.358A10.615,10.615,0,0,0,16.688,56.79l-.117.091c-4.609,3.24-6.844,6.088-6.833,8.708.017,4.4,6.468,8.859,13.935,14.017C35.3,87.634,49.762,97.625,52.405,114.757l.012.1c.752,8.6.695,19.077-3.846,20.168-2.39.577-6.452-.829-14.039-19.577-2.69-6.644-7.066-10.209-12.445-10.209" transform="translate(0.771 0.154)" fill="#fff"/>
      </g>
    </g>
    <g id="Groupe_86" data-name="Groupe 86" transform="translate(139.533 491.275)">
      <path id="Tracé_103" data-name="Tracé 103" d="M1633.186,40.254a7.757,7.757,0,0,1-1.511.133,3.792,3.792,0,0,1-2.311-.577,2.424,2.424,0,0,1-.755-2.044V11.193a5.776,5.776,0,0,1,1.044-.245,9.7,9.7,0,0,1,1.533-.111,3.793,3.793,0,0,1,2.31.577,2.427,2.427,0,0,1,.756,2.044V27.234l8.62-8.576a4.462,4.462,0,0,1,2.711.755,2.29,2.29,0,0,1,1.022,1.91,2.652,2.652,0,0,1-.645,1.777,17.862,17.862,0,0,1-2.021,1.911l-4.8,4.176,8.487,7.954a4.354,4.354,0,0,1-.933,2.422,2.733,2.733,0,0,1-2.177.867,3.307,3.307,0,0,1-1.8-.489,9.666,9.666,0,0,1-1.888-1.733l-6.576-7.287v9.108Q1633.853,40.12,1633.186,40.254Z" transform="translate(-1628.61 -10.838)" fill="#fff"/>
      <path id="Tracé_104" data-name="Tracé 104" d="M1693.028,45.5a3.128,3.128,0,0,1-1.288,1.222,12.258,12.258,0,0,1-3.266,1.334,17.368,17.368,0,0,1-4.511.533,15.841,15.841,0,0,1-4.176-.511,8.74,8.74,0,0,1-3.2-1.578,6.917,6.917,0,0,1-2.044-2.71,9.8,9.8,0,0,1-.711-3.911V26.946a5.82,5.82,0,0,1,1.044-.245,9.761,9.761,0,0,1,1.532-.11,3.911,3.911,0,0,1,2.311.555,2.42,2.42,0,0,1,.755,2.066V39.788a4.125,4.125,0,0,0,1.177,3.31,5.035,5.035,0,0,0,3.355,1,8.8,8.8,0,0,0,2.333-.267,5.585,5.585,0,0,0,1.444-.577V26.946a5.812,5.812,0,0,1,1.045-.245,9.444,9.444,0,0,1,1.488-.11,3.893,3.893,0,0,1,2.333.555,2.457,2.457,0,0,1,.733,2.066V43.787A3.7,3.7,0,0,1,1693.028,45.5Z" transform="translate(-1651.127 -18.682)" fill="#fff"/>
      <path id="Tracé_105" data-name="Tracé 105" d="M1729.1,40.254a7.836,7.836,0,0,1-1.488.133,3.782,3.782,0,0,1-2.333-.577,2.466,2.466,0,0,1-.733-2.044V11.193a5.783,5.783,0,0,1,1.044-.245,9.389,9.389,0,0,1,1.488-.111,3.78,3.78,0,0,1,2.333.577,2.465,2.465,0,0,1,.733,2.044V40.031Q1729.785,40.12,1729.1,40.254Z" transform="translate(-1676.375 -10.838)" fill="#fff"/>
      <path id="Tracé_106" data-name="Tracé 106" d="M1754.061,37.879a4.091,4.091,0,0,0,2.421.622,6.839,6.839,0,0,0,1.533-.178,8.147,8.147,0,0,0,1.4-.444,3.121,3.121,0,0,1,.6.866,2.715,2.715,0,0,1,.244,1.178,2.617,2.617,0,0,1-1.2,2.2,6.721,6.721,0,0,1-3.866.866,8.778,8.778,0,0,1-5.531-1.577q-2.023-1.577-2.022-5.222v-20.4q.355-.088,1.044-.222a7.84,7.84,0,0,1,1.489-.134,3.69,3.69,0,0,1,2.289.578,2.466,2.466,0,0,1,.733,2.044v3.688h6.532a4.029,4.029,0,0,1,.4.933,4.223,4.223,0,0,1,.178,1.244,2.309,2.309,0,0,1-.533,1.689,1.922,1.922,0,0,1-1.422.533h-5.155v9.686A2.342,2.342,0,0,0,1754.061,37.879Z" transform="translate(-1687.876 -13.129)" fill="#fff"/>
      <path id="Tracé_107" data-name="Tracé 107" d="M1783.813,42.677q-1.066-2.221-2.533-6a93.885,93.885,0,0,1-2.933-9.154,3.567,3.567,0,0,1,1.244-.91,4.009,4.009,0,0,1,1.732-.378,3.134,3.134,0,0,1,1.889.534,3.69,3.69,0,0,1,1.177,1.91q2.089,6.71,4.755,13.6h.178q.576-1.466,1.222-3.332t1.244-3.911q.6-2.042,1.133-4.132t.933-4.044a6.974,6.974,0,0,1,1.133-.444,4.434,4.434,0,0,1,1.266-.178,3.669,3.669,0,0,1,2,.534,1.894,1.894,0,0,1,.844,1.733,17.493,17.493,0,0,1-.577,3.755q-.579,2.422-1.533,5.2t-2.155,5.6a50.273,50.273,0,0,1-2.4,4.955,32.979,32.979,0,0,1-4.2,6.109,5.27,5.27,0,0,1-3.71,2.022,3.189,3.189,0,0,1-2.289-.822,3.654,3.654,0,0,1-1.089-2.066q.711-.623,1.511-1.444t1.6-1.755q.8-.933,1.511-1.91a20.9,20.9,0,0,0,1.244-1.911,5.071,5.071,0,0,1-.778-.333,2.96,2.96,0,0,1-.755-.6,8.116,8.116,0,0,1-.8-1.022A10.8,10.8,0,0,1,1783.813,42.677Z" transform="translate(-1703.166 -18.505)" fill="#fff"/>
    </g>
  </g>
</svg>
