<svg xmlns="http://www.w3.org/2000/svg" xmlns:xlink="http://www.w3.org/1999/xlink" width="80.169" height="30.816" viewBox="0 0 80.169 30.816">
  <defs>
    <clipPath id="clip-path">
      <rect id="Rectangle_111" data-name="Rectangle 111" width="21.239" height="30.816" fill="none"/>
    </clipPath>
  </defs>
  <g id="Groupe_283" data-name="Groupe 283" transform="translate(-117.45 -691.245)">
    <g id="Groupe_269" data-name="Groupe 269" transform="translate(117.45 691.245)">
      <g id="Groupe_60" data-name="Groupe 60" clip-path="url(#clip-path)">
        <path id="Tracé_41" data-name="Tracé 41" d="M15.3,25.744c-3.127,1.72-4.54,2.022-6.384,3.3-.479.333-.79.6-1.027.794a.824.824,0,0,1-1.336-.718,5.871,5.871,0,0,0-.4-2.545C5.5,25.27,5.371,24.688,1.364,23c-4.085-1.487,2.116-6.953,4.156-1.913,2.234,5.52,3.145,3.769,2.817.019C7.329,14.572-3.454,13.619,1.728,9.975,3.478,8.464,6.052,9.788,7.4,13.984c.65,2.181,2.945,3.89,3.093,1.27a9.263,9.263,0,0,0-.65-4.855C8.788,8.06,7.324,6.644,7.328,4.3,7.4,2.107,9.461-.875,11.086.242c3.276,2.252,2.327,6.507,1.97,9.162-.526,3.913-1.489,6.42.594,6.925.93.225,1.889-1.229,1.686-3.87-.351-4.557,6.233-7.553,3.652.419-2.524,5.9-4.835,4.622-7.029,7.974-1.052,1.606-1.513,3.024-.977,3.888.511.861,2.2,1.1,3.288-1.609,1.923-5.928,6.649-.952,1.026,2.614" transform="translate(-0.001 0.001)" fill="#7f0f00"/>
        <path id="Tracé_42" data-name="Tracé 42" d="M12.668,31.6a1.039,1.039,0,0,1-.445-.1,1.193,1.193,0,0,1-.663-1.092,5.621,5.621,0,0,0-.371-2.419l-.089-.18c-.554-1.13-.832-1.7-4.554-3.262a1.944,1.944,0,0,1-1.525-1.99A3.275,3.275,0,0,1,7.8,20.032c1.425-.2,2.617.615,3.274,2.237,1.368,3.38,1.976,3.339,1.983,3.339.175-.042.493-.9.295-3.181-.463-2.97-3.064-4.767-5.155-6.211-1.594-1.1-2.853-1.971-2.858-3.09,0-.7.477-1.359,1.51-2.088a2.56,2.56,0,0,1,2.415-.563c1.525.428,2.874,2.143,3.7,4.707.41,1.377,1.471,2.468,2.055,2.4.377-.045.469-.682.49-1.059a9.035,9.035,0,0,0-.625-4.724,21.626,21.626,0,0,0-1.066-2,8.083,8.083,0,0,1-1.478-4.214A5.635,5.635,0,0,1,14.79,1.215a1.632,1.632,0,0,1,1.745.078c3.146,2.163,2.57,6.119,2.188,8.737-.035.241-.069.473-.1.694-.105.785-.23,1.525-.34,2.178-.479,2.839-.634,4.108.723,4.437a.606.606,0,0,0,.548-.164c.457-.388.938-1.515.792-3.412a4.892,4.892,0,0,1,2.362-4.587,1.6,1.6,0,0,1,1.821.058c.586.5,1.064,1.776.015,5.013l-.009.024c-1.545,3.611-3.012,4.59-4.43,5.537a8.031,8.031,0,0,0-2.622,2.48c-1.059,1.618-1.4,2.891-.973,3.587a.938.938,0,0,0,.9.449c.709-.055,1.4-.786,1.888-2.006.606-1.86,1.611-2.961,2.678-2.934a1.6,1.6,0,0,1,1.47,1.261c.317,1.137-.2,3.03-2.708,4.62l-.015.009c-1.4.772-2.449,1.253-3.371,1.678a17.973,17.973,0,0,0-2.989,1.611c-.437.3-.727.546-.959.74l-.048.04a1.072,1.072,0,0,1-.688.259M8.215,20.563a2.427,2.427,0,0,0-.339.024,2.723,2.723,0,0,0-2.3,2.027c-.082.782.592,1.2,1.172,1.409,3.929,1.652,4.238,2.282,4.853,3.537l.088.178a6.037,6.037,0,0,1,.43,2.671.629.629,0,0,0,.341.581A.478.478,0,0,0,13,30.91l.048-.039c.228-.191.541-.452,1-.77a18.43,18.43,0,0,1,3.075-1.66c.912-.419,1.945-.9,3.327-1.655,2.241-1.424,2.726-3.039,2.461-3.989a1.041,1.041,0,0,0-.941-.851h-.018c-.627,0-1.506.67-2.118,2.555l-.006.018c-.785,1.959-1.821,2.323-2.369,2.365a1.5,1.5,0,0,1-1.421-.717c-.566-.913-.236-2.323.983-4.186a8.611,8.611,0,0,1,2.78-2.639c1.348-.9,2.743-1.831,4.22-5.279,1.064-3.294.384-4.2.15-4.4a1.108,1.108,0,0,0-1.2.016,4.3,4.3,0,0,0-2.057,4.044c.138,1.788-.232,3.239-.988,3.883a1.168,1.168,0,0,1-1.044.282c-1.922-.466-1.6-2.4-1.144-5.076.109-.649.234-1.384.338-2.159.03-.223.064-.457.1-.7.383-2.629.907-6.228-1.951-8.193a1.086,1.086,0,0,0-1.174-.04A5.082,5.082,0,0,0,12.9,5.6a7.541,7.541,0,0,0,1.4,3.922,22.121,22.121,0,0,1,1.092,2.047,9.494,9.494,0,0,1,.675,4.987c-.072,1.287-.648,1.545-.985,1.585-.922.108-2.189-1.222-2.657-2.79-.755-2.341-2-3.963-3.316-4.333a1.992,1.992,0,0,0-1.907.457l-.022.017C6.315,12.1,5.9,12.631,5.9,13.122c0,.827,1.214,1.663,2.615,2.631,2.181,1.507,4.9,3.382,5.392,6.6l0,.018c.141,1.614.13,3.58-.722,3.785-.449.108-1.211-.155-2.635-3.674a2.59,2.59,0,0,0-2.336-1.916" transform="translate(-3.925 -0.784)" fill="#fff"/>
      </g>
    </g>
    <g id="Groupe_86" data-name="Groupe 86" transform="translate(144.483 698.446)">
      <path id="Tracé_103" data-name="Tracé 103" d="M1631.145,27.131a4.3,4.3,0,0,1-.837.074,2.1,2.1,0,0,1-1.28-.32,1.343,1.343,0,0,1-.418-1.132V11.035a3.192,3.192,0,0,1,.578-.135,5.372,5.372,0,0,1,.849-.061,2.1,2.1,0,0,1,1.279.32,1.345,1.345,0,0,1,.419,1.132v7.63l4.774-4.75a2.472,2.472,0,0,1,1.5.418,1.268,1.268,0,0,1,.566,1.058,1.469,1.469,0,0,1-.357.984,9.884,9.884,0,0,1-1.12,1.058L1634.443,21l4.7,4.406a2.41,2.41,0,0,1-.517,1.341,1.513,1.513,0,0,1-1.206.48,1.831,1.831,0,0,1-1-.271,5.356,5.356,0,0,1-1.046-.96l-3.642-4.036v5.045Q1631.514,27.057,1631.145,27.131Z" transform="translate(-1628.61 -10.838)" fill="#fff"/>
      <path id="Tracé_104" data-name="Tracé 104" d="M1684.465,37.063a1.733,1.733,0,0,1-.713.677,6.79,6.79,0,0,1-1.809.739,9.62,9.62,0,0,1-2.5.3,8.774,8.774,0,0,1-2.313-.283,4.839,4.839,0,0,1-1.772-.874,3.83,3.83,0,0,1-1.132-1.5,5.429,5.429,0,0,1-.394-2.166V26.788a3.225,3.225,0,0,1,.578-.136,5.407,5.407,0,0,1,.849-.061,2.166,2.166,0,0,1,1.28.308,1.34,1.34,0,0,1,.418,1.144V33.9a2.285,2.285,0,0,0,.652,1.833,2.789,2.789,0,0,0,1.858.554,4.876,4.876,0,0,0,1.292-.148,3.091,3.091,0,0,0,.8-.32V26.788a3.222,3.222,0,0,1,.579-.136,5.23,5.23,0,0,1,.824-.061,2.156,2.156,0,0,1,1.292.308,1.361,1.361,0,0,1,.406,1.144v8.073A2.046,2.046,0,0,1,1684.465,37.063Z" transform="translate(-1661.257 -22.21)" fill="#fff"/>
      <path id="Tracé_105" data-name="Tracé 105" d="M1727.065,27.131a4.341,4.341,0,0,1-.824.074,2.1,2.1,0,0,1-1.292-.32,1.366,1.366,0,0,1-.406-1.132V11.035a3.2,3.2,0,0,1,.579-.135,5.2,5.2,0,0,1,.824-.061,2.094,2.094,0,0,1,1.292.32,1.365,1.365,0,0,1,.406,1.132V27.007Q1727.446,27.057,1727.065,27.131Z" transform="translate(-1697.864 -10.838)" fill="#fff"/>
      <path id="Tracé_106" data-name="Tracé 106" d="M1751.2,27.868a2.266,2.266,0,0,0,1.341.345,3.788,3.788,0,0,0,.849-.1,4.514,4.514,0,0,0,.776-.246,1.73,1.73,0,0,1,.332.48,1.5,1.5,0,0,1,.135.652,1.449,1.449,0,0,1-.664,1.218,3.722,3.722,0,0,1-2.141.48,4.862,4.862,0,0,1-3.064-.874,3.446,3.446,0,0,1-1.12-2.892v-11.3q.2-.049.578-.123a4.343,4.343,0,0,1,.824-.074,2.044,2.044,0,0,1,1.268.32,1.366,1.366,0,0,1,.406,1.132v2.043h3.618a2.225,2.225,0,0,1,.222.517,2.339,2.339,0,0,1,.1.689,1.279,1.279,0,0,1-.3.936,1.064,1.064,0,0,1-.788.3h-2.855v5.365A1.3,1.3,0,0,0,1751.2,27.868Z" transform="translate(-1714.538 -14.159)" fill="#fff"/>
      <path id="Tracé_107" data-name="Tracé 107" d="M1781.375,35.342q-.591-1.23-1.4-3.322a52.044,52.044,0,0,1-1.624-5.07,1.976,1.976,0,0,1,.689-.5,2.221,2.221,0,0,1,.96-.209,1.737,1.737,0,0,1,1.046.3,2.045,2.045,0,0,1,.652,1.058q1.157,3.716,2.634,7.531h.1q.319-.812.677-1.845t.689-2.166q.333-1.131.628-2.289t.517-2.24a3.865,3.865,0,0,1,.628-.246,2.456,2.456,0,0,1,.7-.1,2.032,2.032,0,0,1,1.108.3,1.049,1.049,0,0,1,.467.96,9.684,9.684,0,0,1-.32,2.08q-.32,1.342-.849,2.88t-1.194,3.1a27.874,27.874,0,0,1-1.329,2.744,18.269,18.269,0,0,1-2.326,3.384,2.919,2.919,0,0,1-2.055,1.12,1.766,1.766,0,0,1-1.268-.456,2.025,2.025,0,0,1-.6-1.144q.394-.345.837-.8t.886-.972q.443-.517.837-1.058a11.573,11.573,0,0,0,.689-1.058,2.812,2.812,0,0,1-.431-.185,1.638,1.638,0,0,1-.418-.332,4.51,4.51,0,0,1-.443-.566A5.97,5.97,0,0,1,1781.375,35.342Z" transform="translate(-1736.706 -21.954)" fill="#fff"/>
    </g>
  </g>
</svg>
