<svg id="Calque_1" data-name="Calque 1" xmlns="http://www.w3.org/2000/svg" viewBox="0 0 89.88 89.88"><defs><style>.cls-1{fill:#fff;}</style></defs><path class="cls-1" d="M49.05,83H40.86a2.8,2.8,0,0,1-2.78-2.35L37.14,75a30.21,30.21,0,0,1-7.69-3.17l-5,3.59a2.82,2.82,0,0,1-3.63-.3L15,69.33a2.8,2.8,0,0,1-.3-3.63l3.59-5a30.26,30.26,0,0,1-3.14-7.61L9.6,52.14a2.81,2.81,0,0,1-2.36-2.78V41.17A2.81,2.81,0,0,1,9.6,38.39l5.56-.93a30.24,30.24,0,0,1,3.32-7.91l-3.57-5a2.81,2.81,0,0,1,.3-3.64L21,15.13a2.8,2.8,0,0,1,3.63-.3l5.13,3.66a30.67,30.67,0,0,1,7.3-3l1-6.09a2.8,2.8,0,0,1,2.78-2.36h8.19a2.81,2.81,0,0,1,2.78,2.35l1,6.13a30.12,30.12,0,0,1,7.51,3.12l4.87-3.48a2.81,2.81,0,0,1,3.63.3l5.79,5.79A2.81,2.81,0,0,1,75,24.91l-3.48,4.86a30.32,30.32,0,0,1,3.18,7.68l5.62.94a2.81,2.81,0,0,1,2.36,2.78v8.19a2.81,2.81,0,0,1-2.35,2.78l-5.63.94a30.89,30.89,0,0,1-3,7.41L75,65.19a2.81,2.81,0,0,1-.3,3.63l-5.8,5.79a2.8,2.8,0,0,1-3.63.3l-4.57-3.26A30.36,30.36,0,0,1,52.77,75l-.94,5.65A2.81,2.81,0,0,1,49.05,83Zm-7.19-4h6.19l.9-5.43a2.8,2.8,0,0,1,2.13-2.28,26.51,26.51,0,0,0,8.15-3.43,2.79,2.79,0,0,1,3.15.08l4.39,3.14,4.38-4.38-3.22-4.51a2.82,2.82,0,0,1-.12-3.1A26.62,26.62,0,0,0,71,51.4a2.82,2.82,0,0,1,2.28-2.14l5.41-.9V42.17l-5.41-.9A2.81,2.81,0,0,1,71,39.13a26.61,26.61,0,0,0-3.28-7.93,2.81,2.81,0,0,1,.09-3.12l3.35-4.68L66.74,19l-4.69,3.34a2.8,2.8,0,0,1-3.11.1,26.81,26.81,0,0,0-7.78-3.23A2.8,2.8,0,0,1,49,17l-1-5.9H41.86l-1,5.88a2.81,2.81,0,0,1-2.14,2.27,27.12,27.12,0,0,0-7.59,3.09,2.78,2.78,0,0,1-3.09-.12l-4.94-3.52L18.74,23l3.45,4.82A2.81,2.81,0,0,1,22.27,31a26.33,26.33,0,0,0-3.4,8.13,2.82,2.82,0,0,1-2.28,2.14l-5.35.89v6.19l5.36.89a2.81,2.81,0,0,1,2.27,2.15,26.47,26.47,0,0,0,3.25,7.86A2.81,2.81,0,0,1,22,62.37l-3.45,4.84,4.37,4.38,4.83-3.45a2.81,2.81,0,0,1,3.12-.1,26.74,26.74,0,0,0,7.93,3.27A2.81,2.81,0,0,1,41,73.58Zm11-4.78Zm7.15-3h0Zm11.68-3.67Zm3.12-15.2h0ZM15,38.22h0ZM71.08,29.1Zm-10-10h0Zm-30.65-.13h0Zm-1.29-.06h0ZM23.83,18Zm13.1-1.67Zm15.16-.94Z"/><path class="cls-1" d="M44.94,62.39A17.36,17.36,0,1,1,62.3,45,17.37,17.37,0,0,1,44.94,62.39Zm0-30.71A13.36,13.36,0,1,0,58.3,45,13.38,13.38,0,0,0,44.94,31.68Z"/></svg>