<svg id="Calque_1" data-name="Calque 1" xmlns="http://www.w3.org/2000/svg" viewBox="0 0 89.88 89.88"><path d="M44.27,82.77a38.5,38.5,0,1,1,38.5-38.5A38.54,38.54,0,0,1,44.27,82.77Zm0-72a33.5,33.5,0,1,0,33.5,33.5A33.54,33.54,0,0,0,44.27,10.77Z"/><path d="M28.36,63.88a3.71,3.71,0,0,1-3.31-5.36L36,36.65A3.7,3.7,0,0,1,37.65,35L59.52,24.05a3.71,3.71,0,0,1,5,5L53.55,50.89a3.7,3.7,0,0,1-1.66,1.66L30,63.49A3.78,3.78,0,0,1,28.36,63.88ZM40.27,39.27l-9,18,18-9,9-18Zm.19-.39Z"/><path d="M49.42,48.42l-9.3-9.3a1.75,1.75,0,0,0-2.8.45L28,58.18a1.74,1.74,0,0,0,2.34,2.34L49,51.22A1.75,1.75,0,0,0,49.42,48.42Z"/></svg>