<svg id="Calque_1" data-name="Calque 1" xmlns="http://www.w3.org/2000/svg" viewBox="0 0 89.88 89.88"><defs><style>.cls-1{fill:#cb1417;}</style></defs><polygon class="cls-1" points="48.77 49.23 57.77 31.23 39.77 40.23 48.77 49.23"/><path class="cls-1" d="M44.27,6.23a38.5,38.5,0,1,0,38.5,38.5A38.5,38.5,0,0,0,44.27,6.23ZM64,30,53.05,51.85a3.7,3.7,0,0,1-1.66,1.66L29.52,64.45a3.78,3.78,0,0,1-1.66.39,3.71,3.71,0,0,1-3.31-5.36L35.49,37.61A3.7,3.7,0,0,1,37.15,36L59,25a3.71,3.71,0,0,1,5,5Z"/><polygon class="cls-1" points="39.77 40.23 48.77 49.23 57.77 31.23 39.77 40.23"/></svg>