<svg id="Calque_1" data-name="Calque 1" xmlns="http://www.w3.org/2000/svg" viewBox="0 0 89.88 89.88"><path d="M69.92,82.77H49.49V63.24H38.86V82.77H18.18a7.89,7.89,0,0,1-7.88-7.88V45.66h-.05A3.84,3.84,0,0,1,7.5,39.14L11,35.55,38.72,8.05a7.87,7.87,0,0,1,11.13,0L77.07,35.53l3.6,3.53a3.86,3.86,0,0,1,0,5.45A3.88,3.88,0,0,1,78,45.66H77.8V74.89A7.9,7.9,0,0,1,69.92,82.77Zm-15.43-5H69.92a2.89,2.89,0,0,0,2.88-2.88V40.66h2.36l-1.61-1.58L46.3,11.62a2.86,2.86,0,0,0-4,0L14.56,39.07,13,40.66h2.3V74.89a2.88,2.88,0,0,0,2.88,2.88H33.86V58.24H54.49Z"/></svg>