<svg id="Calque_1" data-name="Calque 1" xmlns="http://www.w3.org/2000/svg" viewBox="0 0 89.88 89.88"><defs><style>.cls-1{fill:#fff;}</style></defs><path class="cls-1" d="M86.36,48.49a3.27,3.27,0,0,0-2.39-1H72.09V31.89l9.18-9.17a3.38,3.38,0,1,0-4.77-4.78l-9.18,9.18H22.56l-9.17-9.18a3.36,3.36,0,0,0-4.78,0,3.33,3.33,0,0,0,0,4.78l9.18,9.17V47.48H5.91a3.27,3.27,0,0,0-2.39,1,3.32,3.32,0,0,0,0,4.77,3.25,3.25,0,0,0,2.39,1H17.79A31.7,31.7,0,0,0,20.86,68.8l-10.71,12a3.55,3.55,0,0,0,.26,4.83,3.51,3.51,0,0,0,2.29.85,3.38,3.38,0,0,0,2.54-1.12l9.71-11,.79.74a19.62,19.62,0,0,0,2.31,1.72c1,.69,2.21,1.38,3.5,2.07a21.89,21.89,0,0,0,4.61,1.75,20.69,20.69,0,0,0,5.39.72V33.91h6.79V81.43a20,20,0,0,0,5.14-.69,24.33,24.33,0,0,0,4.35-1.54,34.89,34.89,0,0,0,3.45-1.93c1.13-.73,1.87-1.23,2.22-1.52s.62-.51.8-.68L74.8,85.51a3.32,3.32,0,0,0,4.77,0,3.32,3.32,0,0,0,0-4.77l-11-11.08q3.55-6.31,3.55-15.38H84a3.38,3.38,0,0,0,2.39-5.79Zm0,0"/><path class="cls-1" d="M57,8.32a16.32,16.32,0,0,0-12-5,16.35,16.35,0,0,0-12,5,16.35,16.35,0,0,0-5,12H61.91a16.35,16.35,0,0,0-5-12Zm0,0"/></svg>