<svg id="Calque_1" data-name="Calque 1" xmlns="http://www.w3.org/2000/svg" viewBox="0 0 89.88 89.88"><defs><style>.cls-1{fill:#fff;}</style></defs><path class="cls-1" d="M44.58,82.65a5.43,5.43,0,0,1-5.07-3.45l-1.56-4C33.91,65,29.09,54.85,24.44,45l-1.83-3.85a24.29,24.29,0,1,1,43.93,0L64.73,45c-4.66,9.83-9.48,20-13.53,30.24l-1.56,4A5.41,5.41,0,0,1,44.58,82.65Zm0-71.15a19.13,19.13,0,0,0-13.64,5.66A19.32,19.32,0,0,0,27.13,39L29,42.89C33.65,52.79,38.5,63,42.6,73.42l1.56,3.94a.47.47,0,0,0,.83,0l1.56-4c4.11-10.4,9-20.64,13.66-30.54L62,39A19.3,19.3,0,0,0,44.58,11.5Z"/><path class="cls-1" d="M44.58,42.34A11.55,11.55,0,1,1,56.12,30.8,11.56,11.56,0,0,1,44.58,42.34Zm0-18.09a6.55,6.55,0,1,0,6.54,6.55A6.56,6.56,0,0,0,44.58,24.25Z"/></svg>