<svg id="Calque_1" data-name="Calque 1" xmlns="http://www.w3.org/2000/svg" viewBox="0 0 89.88 89.88"><defs><style>.cls-1{fill:#fff;}</style></defs><path id="Tracé_75" data-name="Tracé 75" class="cls-1" d="M78,43.32H75.3V75a5.38,5.38,0,0,1-5.38,5.38H54.49v-22H33.86v22H18.18A5.38,5.38,0,0,1,12.8,75h0V43.32H10.25a1.34,1.34,0,0,1-1-2.28l3.51-3.59L40.49,10a5.37,5.37,0,0,1,7.59,0h0L75.3,37.45,78.92,41a1.36,1.36,0,0,1,0,1.91A1.38,1.38,0,0,1,78,43.32Z"/><path class="cls-1" d="M69.92,82.92H54.52l0-24.52H33.86V82.92H18.18A7.88,7.88,0,0,1,10.3,75V45.82h-.05A3.85,3.85,0,0,1,7.5,39.29L11,35.7,38.72,8.21a7.82,7.82,0,0,1,5.55-2.29h0a7.83,7.83,0,0,1,5.55,2.33L77.07,35.69l3.6,3.52A3.85,3.85,0,0,1,78,45.82H77.8V75A7.89,7.89,0,0,1,69.92,82.92Zm-15.43-5H69.92A2.88,2.88,0,0,0,72.8,75V40.82h2.36l-1.61-1.58L46.3,11.77a2.87,2.87,0,0,0-4,0L14.56,39.22,13,40.82h2.3V75a2.88,2.88,0,0,0,2.88,2.88H33.86V58.4H54.49Z"/></svg>