<svg id="Calque_1" data-name="Calque 1" xmlns="http://www.w3.org/2000/svg" viewBox="0 0 89.88 89.88"><defs><style>.cls-1{fill:#fff;}</style></defs><path class="cls-1" d="M76.19,62a12.32,12.32,0,0,0-17.41,0,12,12,0,0,0-1.42,1.7l-17.44-8a17.28,17.28,0,0,0,.62-4.58A17.09,17.09,0,0,0,39,43.91L58.26,31.73a14.85,14.85,0,1,0-3-4l-19,12a17.22,17.22,0,1,0,1.65,20.52l17.52,8.07a12.09,12.09,0,0,0-.24,2.41,12.32,12.32,0,0,0,24.63,0A12.19,12.19,0,0,0,76.19,62ZM68.51,11.12A9.87,9.87,0,1,1,58.65,21,9.88,9.88,0,0,1,68.51,11.12ZM23.31,63.31A12.23,12.23,0,1,1,35.54,51.09,12.23,12.23,0,0,1,23.31,63.31ZM72.66,75.9a7.33,7.33,0,1,1,2.14-5.18A7.27,7.27,0,0,1,72.66,75.9Z"/></svg>