<svg id="Calque_1" data-name="Calque 1" xmlns="http://www.w3.org/2000/svg" viewBox="0 0 89.88 89.88"><defs><style>.cls-1{fill:#cb1417;}</style></defs><path class="cls-1" d="M44.42,43A18.31,18.31,0,1,1,62.73,24.73,18.33,18.33,0,0,1,44.42,43Zm0-31.62A13.31,13.31,0,1,0,57.73,24.73,13.32,13.32,0,0,0,44.42,11.42Z"/><path class="cls-1" d="M19,83.34a9.84,9.84,0,0,1-2.78-.4,10,10,0,0,1-6.79-12.4A36.94,36.94,0,0,1,33.11,46.83a36.8,36.8,0,0,1,46.3,23.68,10,10,0,0,1-9.69,12.83H19Zm50.75-5h0a4.79,4.79,0,0,0,3.54-1.4,5,5,0,0,0,1.51-3.49,5.21,5.21,0,0,0-.2-1.47,31.78,31.78,0,0,0-40-20.39A31.88,31.88,0,0,0,14.2,72a5,5,0,0,0,3.42,6.13,4.6,4.6,0,0,0,1.48.2Z"/></svg>