<svg id="Calque_1" data-name="Calque 1" xmlns="http://www.w3.org/2000/svg" viewBox="0 0 89.88 89.88"><path d="M44.42,42.43A18.31,18.31,0,1,1,62.73,24.12,18.33,18.33,0,0,1,44.42,42.43Zm0-31.62A13.31,13.31,0,1,0,57.73,24.12,13.32,13.32,0,0,0,44.42,10.81Z"/><path d="M19,82.73a10.21,10.21,0,0,1-2.78-.4,10,10,0,0,1-6.79-12.4,36.77,36.77,0,0,1,70,0,10,10,0,0,1-9.69,12.83H19Zm50.75-5h0a4.79,4.79,0,0,0,3.54-1.4,4.94,4.94,0,0,0,1.5-3.49,4.87,4.87,0,0,0-.19-1.47A31.78,31.78,0,0,0,34.65,51,31.86,31.86,0,0,0,14.2,71.4a5,5,0,0,0,3.42,6.13,4.6,4.6,0,0,0,1.48.2Z"/></svg>