<svg id="Calque_1" data-name="Calque 1" xmlns="http://www.w3.org/2000/svg" viewBox="0 0 90 90"><defs><style>.cls-1{fill:#cb1417;}</style></defs><path class="cls-1" d="M70.8,83.5H50.38V64H39.75V83.5H19.06a7.9,7.9,0,0,1-7.88-7.88V46.39h0a3.84,3.84,0,0,1-2.75-6.52l3.51-3.59L39.61,8.78a7.88,7.88,0,0,1,11.13.05L78,36.27l3.59,3.52a3.8,3.8,0,0,1,1.16,2.71,3.85,3.85,0,0,1-1.1,2.74,3.91,3.91,0,0,1-2.76,1.15h-.17V75.62A7.9,7.9,0,0,1,70.8,83.5Zm-15.42-5H70.8a2.88,2.88,0,0,0,2.88-2.88V41.39h2.37l-1.62-1.58L47.19,12.35a2.87,2.87,0,0,0-4.06,0L15.44,39.8l-1.55,1.59h2.29V75.62a2.88,2.88,0,0,0,2.88,2.88H34.75V59H55.38Z"/></svg>