<svg id="Calque_1" data-name="Calque 1" xmlns="http://www.w3.org/2000/svg" viewBox="0 0 89.88 89.88"><path d="M44.58,82.34a5.42,5.42,0,0,1-5.07-3.45L38,75c-4-10.25-8.86-20.4-13.51-30.22l-1.83-3.86a24.29,24.29,0,1,1,43.93,0l-1.81,3.84c-4.66,9.82-9.48,20-13.53,30.24l-1.56,3.94A5.4,5.4,0,0,1,44.58,82.34Zm0-71.14A19.3,19.3,0,0,0,27.13,38.74L29,42.59c4.7,9.89,9.55,20.12,13.65,30.52l1.56,4a.47.47,0,0,0,.83,0l1.56-4c4.11-10.41,9-20.65,13.66-30.55L62,38.74A19.29,19.29,0,0,0,44.58,11.2Z"/><path d="M44.58,42A11.55,11.55,0,1,1,56.12,30.49,11.56,11.56,0,0,1,44.58,42Zm0-18.09a6.55,6.55,0,1,0,6.54,6.54A6.55,6.55,0,0,0,44.58,24Z"/></svg>