<svg id="Calque_1" data-name="Calque 1" xmlns="http://www.w3.org/2000/svg" viewBox="0 0 89.88 89.88"><defs><style>.cls-1{fill:#cb1417;}</style></defs><path class="cls-1" d="M44.58,83a5.43,5.43,0,0,1-5.07-3.44l-1.56-4c-4-10.24-8.86-20.4-13.51-30.22l-1.83-3.85a24.29,24.29,0,1,1,43.93,0l-1.81,3.83c-4.66,9.82-9.48,20-13.53,30.24l-1.56,4A5.4,5.4,0,0,1,44.58,83Zm0-71.14A19.3,19.3,0,0,0,27.13,39.35L29,43.2c4.7,9.89,9.55,20.12,13.65,30.52l1.56,4a.47.47,0,0,0,.83,0l1.56-4c4.11-10.4,9-20.64,13.66-30.54L62,39.35A19.3,19.3,0,0,0,44.58,11.81Z"/><path class="cls-1" d="M44.58,42.65A11.55,11.55,0,1,1,56.12,31.1,11.56,11.56,0,0,1,44.58,42.65Zm0-18.09a6.55,6.55,0,1,0,6.54,6.54A6.56,6.56,0,0,0,44.58,24.56Z"/></svg>