<svg id="Calque_1" data-name="Calque 1" xmlns="http://www.w3.org/2000/svg" viewBox="0 0 89.88 89.88"><defs><style>.cls-1{fill:#fff;}</style></defs><path class="cls-1" d="M44.27,83.08a38.5,38.5,0,1,1,38.5-38.5A38.55,38.55,0,0,1,44.27,83.08Zm0-72a33.5,33.5,0,1,0,33.5,33.5A33.53,33.53,0,0,0,44.27,11.08Z"/><path class="cls-1" d="M28.36,64.18a3.7,3.7,0,0,1-3.31-5.35L36,37a3.68,3.68,0,0,1,1.66-1.65L59.52,24.36a3.7,3.7,0,0,1,5,5L53.55,51.2a3.68,3.68,0,0,1-1.66,1.65L30,63.79A3.64,3.64,0,0,1,28.36,64.18ZM40.27,39.57l-9,18,18-9,9-18Zm.19-.38Z"/><path class="cls-1" d="M49.42,48.73l-9.3-9.31a1.75,1.75,0,0,0-2.8.46L28,58.49a1.74,1.74,0,0,0,2.34,2.34L49,51.52A1.74,1.74,0,0,0,49.42,48.73Z"/></svg>