<svg id="Calque_1" data-name="Calque 1" xmlns="http://www.w3.org/2000/svg" viewBox="0 0 89.88 89.88"><defs><style>.cls-1{fill:none;}.cls-2{fill:#fff;}.cls-3{isolation:isolate;}</style></defs><g id="Groupe_256" data-name="Groupe 256"><g id="Ellipse_52" data-name="Ellipse 52"><circle class="cls-1" cx="45" cy="45" r="36"/><path class="cls-2" d="M45,81A36,36,0,1,1,81,45,36,36,0,0,1,45,81Zm0-64.8A28.8,28.8,0,1,0,73.8,45,28.83,28.83,0,0,0,45,16.2Z"/></g><g id="i" class="cls-3"><g class="cls-3"><path class="cls-2" d="M45.62,30.83a4.49,4.49,0,0,1-3.1-1.09,3.8,3.8,0,0,1,0-5.54,5,5,0,0,1,6.21,0,3.82,3.82,0,0,1,0,5.54A4.48,4.48,0,0,1,45.62,30.83ZM42.16,66.6V35.83h7V66.6Z"/></g></g></g></svg>