<svg id="Calque_1" data-name="Calque 1" xmlns="http://www.w3.org/2000/svg" viewBox="0 0 89.88 89.88"><defs><style>.cls-1{fill:#cb1417;}</style></defs><path class="cls-1" d="M44.27,83.38a38.5,38.5,0,1,1,38.5-38.5A38.54,38.54,0,0,1,44.27,83.38Zm0-72a33.5,33.5,0,1,0,33.5,33.5A33.54,33.54,0,0,0,44.27,11.38Z"/><path class="cls-1" d="M28.36,64.49a3.7,3.7,0,0,1-3.31-5.36L36,37.26a3.75,3.75,0,0,1,1.66-1.66L59.52,24.67a3.7,3.7,0,0,1,5,5L53.55,51.51a3.68,3.68,0,0,1-1.66,1.65L30,64.1A3.78,3.78,0,0,1,28.36,64.49ZM40.27,39.88l-9,18,18-9,9-18Zm.19-.39h0Z"/><path class="cls-1" d="M49.42,49l-9.3-9.31a1.75,1.75,0,0,0-2.8.45L28,58.79a1.74,1.74,0,0,0,2.34,2.34L49,51.83A1.74,1.74,0,0,0,49.42,49Z"/></svg>