<svg id="Calque_1" data-name="Calque 1" xmlns="http://www.w3.org/2000/svg" viewBox="0 0 89.88 89.88"><defs><style>.cls-1{fill:#cb1417;}</style></defs><path class="cls-1" d="M44.89,83.33a7.56,7.56,0,0,1-5.36-2.22l-29-29c-.42-.37-.82-.76-1.21-1.15A26.19,26.19,0,0,1,44.9,12.6,26.18,26.18,0,0,1,79.25,52.12l-29,29A7.58,7.58,0,0,1,44.89,83.33ZM28,11.43a21.18,21.18,0,0,0-15.11,36c.33.34.67.66,1,1l.1.11,29,29a2.61,2.61,0,0,0,3.66,0L75.87,48.44a21.19,21.19,0,0,0-28.23-31.6c-.34.3-.66.6-1,.92l-1.78,1.8-1.78-1.81A21.14,21.14,0,0,0,28,11.43Z"/></svg>