<svg id="Calque_1" data-name="Calque 1" xmlns="http://www.w3.org/2000/svg" viewBox="0 0 90 90"><defs><style>.cls-1{fill:#cb1417;}</style></defs><path id="Tracé_75" data-name="Tracé 75" class="cls-1" d="M78.85,43.9H76.18V75.62A5.38,5.38,0,0,1,70.8,81H55.38V59H34.75V81H19.06a5.38,5.38,0,0,1-5.38-5.38h0V43.9H11.13a1.34,1.34,0,0,1-1-2.28L13.68,38,41.37,10.56a5.36,5.36,0,0,1,7.59,0h0L76.18,38l3.62,3.54a1.36,1.36,0,0,1-1,2.33Z"/><path class="cls-1" d="M70.8,83.5H55.4l0-24.53H34.75V83.5H19.06a7.89,7.89,0,0,1-7.88-7.88V46.4h0a3.85,3.85,0,0,1-2.75-6.53l3.52-3.59L39.61,8.78A7.82,7.82,0,0,1,45.15,6.5h0a7.81,7.81,0,0,1,5.56,2.33L78,36.27l3.59,3.52a3.85,3.85,0,0,1,.06,5.45,3.93,3.93,0,0,1-2.76,1.16h-.17V75.62A7.88,7.88,0,0,1,70.8,83.5Zm-15.42-5,15.42,0a2.88,2.88,0,0,0,2.88-2.88V41.4h2.37l-1.62-1.59L47.19,12.35a2.88,2.88,0,0,0-4.06,0L15.44,39.8l-1.55,1.6h2.29V75.62a2.88,2.88,0,0,0,2.88,2.88H34.75V59H55.38Z"/></svg>