<svg xmlns="http://www.w3.org/2000/svg" viewBox="0 0 77.35 75.21"><defs><style>.cls-1{fill:#838388;}</style></defs><g id="Calque_2" data-name="Calque 2"><g id="Calque_1-2" data-name="Calque 1"><path class="cls-1" d="M61.44,52.15A32.71,32.71,0,0,0,57.63,9.67a34.27,34.27,0,0,0-47.71,0,32.75,32.75,0,0,0,0,47,34.27,34.27,0,0,0,43.36,3.58L67.65,73.65a5.77,5.77,0,0,0,8.13-.24h0a5.67,5.67,0,0,0-.24-8.07ZM18,48.51a21.4,21.4,0,0,1,0-30.72,22.63,22.63,0,0,1,31.52,0A21.36,21.36,0,0,1,56,33.15a21.1,21.1,0,0,1-1.68,8.31,21.58,21.58,0,0,1-4.81,7A22.65,22.65,0,0,1,18,48.51Z"/></g></g></svg>