<svg id="Calque_1" data-name="Calque 1" xmlns="http://www.w3.org/2000/svg" viewBox="0 0 89.88 89.88"><path d="M76.19,61.7a12.32,12.32,0,0,0-17.41,0,12,12,0,0,0-1.42,1.7l-17.44-8a17.28,17.28,0,0,0,.62-4.58A17.09,17.09,0,0,0,39,43.6L58.26,31.42a14.85,14.85,0,1,0-3-4l-19,12a17.22,17.22,0,1,0,1.65,20.52L55.41,68a12.09,12.09,0,0,0-.24,2.41,12.32,12.32,0,0,0,24.63,0,12.19,12.19,0,0,0-3.61-8.71ZM68.51,10.81a9.87,9.87,0,1,1-9.86,9.87A9.88,9.88,0,0,1,68.51,10.81ZM23.31,63A12.23,12.23,0,1,1,35.54,50.78,12.23,12.23,0,0,1,23.31,63ZM72.66,75.59a7.33,7.33,0,1,1,2.14-5.18A7.27,7.27,0,0,1,72.66,75.59Z"/></svg>