<svg id="Calque_1" data-name="Calque 1" xmlns="http://www.w3.org/2000/svg" viewBox="0 0 89.88 89.88"><defs><style>.cls-1{fill:#fff;}</style></defs><path class="cls-1" d="M69.92,83.07H49.49V63.55H38.86V83.07H18.18A7.88,7.88,0,0,1,10.3,75.2V46h-.05A3.85,3.85,0,0,1,7.5,39.44L11,35.85,38.72,8.36a7.88,7.88,0,0,1,11.13,0L77.07,35.84l3.6,3.52a3.88,3.88,0,0,1,.06,5.45A3.89,3.89,0,0,1,78,46H77.8V75.2A7.89,7.89,0,0,1,69.92,83.07Zm-15.43-5H69.92A2.89,2.89,0,0,0,72.8,75.2V41h2.36l-1.61-1.58L46.3,11.92a2.86,2.86,0,0,0-4,0L14.56,39.38,13,41h2.3V75.2a2.88,2.88,0,0,0,2.88,2.87H33.86V58.55H54.49Z"/></svg>