<svg id="Calque_1" data-name="Calque 1" xmlns="http://www.w3.org/2000/svg" viewBox="0 0 89.88 89.88"><defs><style>.cls-1{fill:#cb1417;}</style></defs><path class="cls-1" d="M76.19,62.31a12.32,12.32,0,0,0-17.41,0A12,12,0,0,0,57.36,64L39.92,56a17.28,17.28,0,0,0,.62-4.58A17.09,17.09,0,0,0,39,44.21L58.26,32a14.85,14.85,0,1,0-3-4l-19,12a17.22,17.22,0,1,0,1.65,20.52l17.52,8.07A12.09,12.09,0,0,0,55.17,71,12.32,12.32,0,0,0,79.8,71a12.19,12.19,0,0,0-3.61-8.71ZM68.51,11.42a9.87,9.87,0,1,1-9.86,9.87A9.88,9.88,0,0,1,68.51,11.42ZM23.31,63.61A12.23,12.23,0,1,1,35.54,51.39,12.23,12.23,0,0,1,23.31,63.61ZM72.66,76.2A7.33,7.33,0,1,1,74.8,71,7.27,7.27,0,0,1,72.66,76.2Z"/></svg>