<svg id="Calque_1" data-name="Calque 1" xmlns="http://www.w3.org/2000/svg" xmlns:xlink="http://www.w3.org/1999/xlink" viewBox="0 0 89.88 89.88"><defs><style>.cls-1{fill:none;}.cls-2{clip-path:url(#clip-path);}.cls-3{fill:#fff;}</style><clipPath id="clip-path"><rect class="cls-1" x="1.26" y="-115.6" width="87.12" height="87.31"/></clipPath></defs><g class="cls-2"><path d="M12.21,7.4V90H60.37L77.28,73.1V7.4Zm4.84,4.84H72.44V68.65H55.93V85.16H17.05ZM70,73.49l-9.27,9.27V73.49Zm0,0"/><rect x="34.42" y="22.19" width="20.65" height="4.84"/><rect x="24.96" y="34.24" width="39.58" height="4.84"/><rect x="24.96" y="44.56" width="39.58" height="4.84"/><rect x="24.96" y="54.89" width="39.58" height="4.84"/><rect x="42.2" y="68.65" width="5.08" height="4.84"/><rect x="39.81" y="68.65" width="9.87" height="4.84"/></g><path class="cls-3" d="M14.18,11.54V78.35A5.65,5.65,0,0,0,19.82,84h39.9l16-16V11.54A5.64,5.64,0,0,0,70.06,5.9H19.82A5.64,5.64,0,0,0,14.18,11.54Zm6.75-1.07H69a2.18,2.18,0,0,1,2.17,2.18V63.8H58.42a2.9,2.9,0,0,0-2.9,2.91v12.7H20.93a2.17,2.17,0,0,1-2.17-2.17V12.65A2.18,2.18,0,0,1,20.93,10.47ZM68.85,68.38l-8.76,8.76V69.41a1,1,0,0,1,1-1Zm0,0"/><rect class="cls-3" x="35.18" y="19.88" width="19.52" height="4.58" rx="2.29"/><rect class="cls-3" x="26.23" y="31.27" width="37.42" height="4.58" rx="2.29"/><rect class="cls-3" x="26.23" y="41.03" width="37.42" height="4.58" rx="2.29"/><rect class="cls-3" x="26.23" y="50.79" width="37.42" height="4.58" rx="2.29"/><rect class="cls-3" x="26.23" y="63.8" width="4.8" height="4.58" rx="2.29"/><rect class="cls-3" x="35.61" y="63.8" width="9.33" height="4.58" rx="2.29"/></svg>