<svg id="Calque_1" data-name="Calque 1" xmlns="http://www.w3.org/2000/svg" viewBox="0 0 89.88 89.88"><circle id="Ellipse_43" data-name="Ellipse 43" cx="44.42" cy="24.27" r="15.81"/><path d="M44.42,42.58A18.31,18.31,0,1,1,62.73,24.27,18.33,18.33,0,0,1,44.42,42.58Zm0-31.62A13.31,13.31,0,1,0,57.73,24.27,13.32,13.32,0,0,0,44.42,11Z"/><path id="Tracé_63" data-name="Tracé 63" d="M69.74,80.38A7.46,7.46,0,0,0,77,70.82a34.27,34.27,0,0,0-65.21,0,7.5,7.5,0,0,0,5.1,9.3,7.58,7.58,0,0,0,2.22.3Z"/><path d="M19,82.88a10,10,0,0,1-8.74-5.19,10,10,0,0,1-.83-7.61,36.91,36.91,0,0,1,23.69-23.7,36.78,36.78,0,0,1,46.3,23.68,10.17,10.17,0,0,1,.42,3,10,10,0,0,1-10.1,9.81H19Zm50.75-5h0a4.84,4.84,0,0,0,3.54-1.4A4.93,4.93,0,0,0,74.83,73a5.26,5.26,0,0,0-.2-1.47,31.78,31.78,0,0,0-40-20.39A31.87,31.87,0,0,0,14.2,71.56a5,5,0,0,0,3.42,6.12,4.64,4.64,0,0,0,1.48.2Z"/></svg>