<svg id="Calque_1" data-name="Calque 1" xmlns="http://www.w3.org/2000/svg" viewBox="0 0 89.88 89.88"><defs><style>.cls-1{fill:#fff;}</style></defs><path class="cls-1" d="M44.89,83a7.56,7.56,0,0,1-5.36-2.22l-29-29c-.42-.37-.82-.75-1.21-1.15A26.19,26.19,0,0,1,44.9,12.29,26.18,26.18,0,0,1,79.25,51.81l-29,29A7.58,7.58,0,0,1,44.89,83ZM28,11.12a21.18,21.18,0,0,0-15.11,36c.33.34.67.66,1,1l.1.1,29,29a2.6,2.6,0,0,0,3.66,0L75.87,48.13a21.19,21.19,0,0,0-28.23-31.6c-.34.3-.66.61-1,.92l-1.78,1.8-1.78-1.8A21.11,21.11,0,0,0,28,11.12Z"/></svg>