<svg id="Calque_1" data-name="Calque 1" xmlns="http://www.w3.org/2000/svg" viewBox="0 0 89.88 89.88"><defs><style>.cls-1{fill:#fff;}</style></defs><polygon class="cls-1" points="48.77 48.92 57.77 30.92 39.77 39.92 48.77 48.92"/><path class="cls-1" d="M44.27,5.92a38.5,38.5,0,1,0,38.5,38.5A38.5,38.5,0,0,0,44.27,5.92ZM64,29.67,53.05,51.55a3.68,3.68,0,0,1-1.66,1.65L29.52,64.14a3.78,3.78,0,0,1-1.66.39,3.7,3.7,0,0,1-3.31-5.36L35.49,37.3a3.75,3.75,0,0,1,1.66-1.66L59,24.71a3.7,3.7,0,0,1,5,5Z"/><polygon class="cls-1" points="39.77 39.92 48.77 48.92 57.77 30.92 39.77 39.92"/></svg>