<svg id="Calque_1" data-name="Calque 1" xmlns="http://www.w3.org/2000/svg" xmlns:xlink="http://www.w3.org/1999/xlink" viewBox="0 0 89.88 89.88"><defs><style>.cls-1{fill:none;}.cls-2{clip-path:url(#clip-path);}.cls-3{fill:#fff;}</style><clipPath id="clip-path"><rect class="cls-1" x="1.38" y="1.28" width="87.12" height="87.31"/></clipPath></defs><g class="cls-2"><path class="cls-3" d="M78.46,5A12,12,0,0,0,61.51,5L57.27,9.24,12.12,54.36l-.09.1s0,0,0,0l-.17.21s0,0,0,.05l-.12.19a.35.35,0,0,0-.05.08c0,.07,0,.12-.07.19s0,0,0,.05L1.51,85.4a2.35,2.35,0,0,0,.57,2.44,2.43,2.43,0,0,0,1.7.7,3.34,3.34,0,0,0,.77-.12l30.1-10s0,0,.05,0a.78.78,0,0,0,.21-.09s0,0,.05,0l.24-.14c.07,0,.14-.12.22-.17s0,0,0,0,.08,0,.1-.09L85,28.39a12,12,0,0,0,0-17ZM33.88,72.74,17.2,56.07,59,14.32,75.63,31Zm-19-12.24L29.43,75.07,7.55,82.35ZM81.57,25,79,27.6,62.35,10.92l2.57-2.57a7.19,7.19,0,0,1,10.16,0l6.51,6.52a7.2,7.2,0,0,1,0,10.16Zm0,0"/></g></svg>