<svg id="Calque_1" data-name="Calque 1" xmlns="http://www.w3.org/2000/svg" viewBox="0 0 89.88 89.88"><defs><style>.cls-1{fill:#fff;}</style></defs><path class="cls-1" d="M44.42,42.74A18.31,18.31,0,1,1,62.73,24.43,18.33,18.33,0,0,1,44.42,42.74Zm0-31.62A13.31,13.31,0,1,0,57.73,24.43,13.32,13.32,0,0,0,44.42,11.12Z"/><path class="cls-1" d="M19,83a9.84,9.84,0,0,1-2.78-.4,10,10,0,0,1-6.79-12.4,36.91,36.91,0,0,1,23.69-23.7,36.78,36.78,0,0,1,46.3,23.68A10,10,0,0,1,69.72,83H19Zm50.75-5h0a4.72,4.72,0,0,0,3.54-1.4,5,5,0,0,0,1.51-3.49,5.15,5.15,0,0,0-.2-1.46,31.77,31.77,0,0,0-60.43,0,5,5,0,0,0,3.42,6.12,4.6,4.6,0,0,0,1.48.2Z"/></svg>