<?xml version="1.0" encoding="utf-8"?>
<!-- Generator: Adobe Illustrator 24.3.0, SVG Export Plug-In . SVG Version: 6.00 Build 0)  -->
<svg version="1.1" id="Calque_1" xmlns="http://www.w3.org/2000/svg" xmlns:xlink="http://www.w3.org/1999/xlink" x="0px" y="0px"
	 viewBox="0 0 89.9 89.9" style="enable-background:new 0 0 89.9 89.9;" xml:space="preserve">
<style type="text/css">
	.st0{fill:#FFFFFF;fill-opacity:0;}
	.st1{fill:#FFFFFF;}
</style>
<g id="Button_1">
	<rect id="Frame" x="0.1" class="st0" width="89.8" height="89.8"/>
	<path id="Tracé_85" class="st1" d="M40,70.2c-1.4,1.4-3.6,1.4-5,0c0,0,0,0,0,0l-0.4-0.4c-1.4-1.4-1.4-3.6,0-5c0,0,0,0,0,0l0,0
		L54,45.4c0.4-0.4,0.4-1.1,0-1.5c0,0,0,0,0,0L34.6,24.4c-1.4-1.4-1.4-3.6,0-5c0,0,0,0,0,0l0,0L35,19c1.4-1.4,3.6-1.4,5,0
		c0,0,0,0,0,0l24.8,24.9c0.4,0.4,0.4,1.1,0,1.6c0,0,0,0,0,0L40,70.2z"/>
</g>
</svg>
