<svg id="Calque_1" data-name="Calque 1" xmlns="http://www.w3.org/2000/svg" viewBox="0 0 89.88 89.88"><defs><style>.cls-1{fill:#cb1417;}</style></defs><circle id="Ellipse_43" data-name="Ellipse 43" class="cls-1" cx="44.42" cy="24.58" r="15.81"/><path class="cls-1" d="M44.42,42.89A18.31,18.31,0,1,1,62.73,24.58,18.33,18.33,0,0,1,44.42,42.89Zm0-31.62A13.31,13.31,0,1,0,57.73,24.58,13.32,13.32,0,0,0,44.42,11.27Z"/><path id="Tracé_63" data-name="Tracé 63" class="cls-1" d="M69.74,80.69A7.46,7.46,0,0,0,77,71.13a34.27,34.27,0,0,0-65.21,0,7.5,7.5,0,0,0,5.1,9.3,7.58,7.58,0,0,0,2.22.3Z"/><path class="cls-1" d="M19,83.19a10.26,10.26,0,0,1-2.78-.4,10,10,0,0,1-6.78-12.4,36.77,36.77,0,0,1,70,0,10.28,10.28,0,0,1,.42,3,10,10,0,0,1-10.1,9.81H19Zm50.75-5h0a4.88,4.88,0,0,0,3.54-1.4,5,5,0,0,0,1.51-3.49,5.21,5.21,0,0,0-.2-1.47,31.78,31.78,0,0,0-40-20.39A31.86,31.86,0,0,0,14.2,71.86a5,5,0,0,0,4.9,6.33Z"/></svg>